#Comment line ignore any data following # character 
#Hierarchical Translation and Rotation (.htr) file 
[Header]	
#Header keywords are followed by a single value 
FileType HTR		#Single word string
DataType HTRS		#Translation followed by rotation and scale data
FileVersion 1		#integer
NumSegments 84		#integer
NumFrames 2		#integer
DataFrameRate 30		#integer, data frame rate in this file
EulerRotationOrder ZYX
CalibrationUnits mm
RotationUnits Degrees
GlobalAxisofGravity Y
BoneLengthAxis Y
ScaleFactor 1.00
[SegmentNames&Hierarchy]
#CHILD	PARENT
MASTER GLOBAL
root MASTER
chest root
L_mid_tent01 root
R_mid_tent01 root
spine01 root
Bip01_Neck chest
L_humerus chest
R_humerus chest
weapon_bone chest
Bip01_Head Bip01_Neck
eye_left_bone Bip01_Head
eye_right_bone Bip01_Head
L_forearm L_humerus
L_front_hand L_forearm
L_weapon_bone L_forearm
L_front_hand01_01 L_front_hand
L_front_hand02_01 L_front_hand
L_front_hand03_01 L_front_hand
L_front_hand01_02 L_front_hand01_01
L_front_hand02_02 L_front_hand02_01
L_front_hand03_02 L_front_hand03_01
R_forearm R_humerus
R_front_hand R_forearm
R_weapon_bone R_forearm
R_front_hand01_01 R_front_hand
R_front_hand02_01 R_front_hand
R_front_hand03_01 R_front_hand
R_front_hand01_02 R_front_hand01_01
R_front_hand02_02 R_front_hand02_01
R_front_hand03_02 R_front_hand03_01
null_rope01_connect L_mid_tent01
Rope1_Seg01 null_rope01_connect
Rope1_Seg02 Rope1_Seg01
Rope1_Seg03 Rope1_Seg02
Rope1_Seg04 Rope1_Seg03
Rope1_Seg05 Rope1_Seg04
Rope1_Seg06 Rope1_Seg05
Rope1_Seg07 Rope1_Seg06
Rope1_Seg09 Rope1_Seg07
L_mid_hand01 Rope1_Seg09
L_mid_hand02 Rope1_Seg09
L_mid_hand03 Rope1_Seg09
null_rope02_connect R_mid_tent01
Rope2_Seg01 null_rope02_connect
Rope2_Seg02 Rope2_Seg01
Rope2_Seg03 Rope2_Seg02
Rope2_Seg04 Rope2_Seg03
Rope2_Seg05 Rope2_Seg04
Rope2_Seg06 Rope2_Seg05
Rope2_Seg07 Rope2_Seg06
Rope2_Seg09 Rope2_Seg07
R_mid_hand01 Rope2_Seg09
R_mid_hand02 Rope2_Seg09
R_mid_hand03 Rope2_Seg09
spine02 spine01
spine03 spine02
pelvis spine03
null_rope03_connect pelvis
null_rope04_connect pelvis
Rope3_Seg01 null_rope03_connect
Rope3_Seg02 Rope3_Seg01
Rope3_Seg03 Rope3_Seg02
Rope3_Seg04 Rope3_Seg03
Rope3_Seg05 Rope3_Seg04
Rope3_Seg06 Rope3_Seg05
Rope3_Seg07 Rope3_Seg06
Rope3_Seg08 Rope3_Seg07
Rope3_Seg09 Rope3_Seg08
R_rear_hand01 Rope3_Seg09
R_rear_hand02 Rope3_Seg09
R_rear_hand03 Rope3_Seg09
Rope4_Seg01 null_rope04_connect
Rope4_Seg02 Rope4_Seg01
Rope4_Seg03 Rope4_Seg02
Rope4_Seg04 Rope4_Seg03
Rope4_Seg05 Rope4_Seg04
Rope4_Seg06 Rope4_Seg05
Rope4_Seg07 Rope4_Seg06
Rope4_Seg08 Rope4_Seg07
Rope4_Seg09 Rope4_Seg08
L_rear_hand01 Rope4_Seg09
L_rear_hand02 Rope4_Seg09
L_rear_hand03 Rope4_Seg09
[BasePosition]
#SegmentName Tx, Ty, Tz, Rx, Ry, Rz, BoneLength
MASTER 0.000000 0.000000 0.000000 -90.000000 0.000000 0.000000 10.000000 
root 0.000000 0.000000 0.000000 0.000000 0.000000 0.000000 10.000000 
chest 0.000000 0.000000 0.000000 0.000000 0.000000 0.000000 10.000000 
L_mid_tent01 0.000000 0.000000 0.000000 0.000000 0.000000 0.000000 10.000000 
R_mid_tent01 0.000000 0.000000 0.000000 0.000000 0.000000 0.000000 10.000000 
spine01 0.000000 0.000000 0.000000 0.000000 0.000000 0.000000 10.000000 
Bip01_Neck 0.000000 0.000000 0.000000 0.000000 0.000000 0.000000 10.000000 
L_humerus 0.000000 0.000000 0.000000 0.000000 0.000000 0.000000 10.000000 
R_humerus 0.000000 0.000000 0.000000 0.000000 0.000000 0.000000 10.000000 
weapon_bone 0.000000 0.000000 0.000000 0.000000 0.000000 0.000000 10.000000 
Bip01_Head 0.000000 0.000000 0.000000 0.000000 0.000000 0.000000 10.000000 
eye_left_bone 0.000000 0.000000 0.000000 0.000000 0.000000 0.000000 10.000000 
eye_right_bone 0.000000 0.000000 0.000000 0.000000 0.000000 0.000000 10.000000 
L_forearm 0.000000 0.000000 0.000000 0.000000 0.000000 0.000000 10.000000 
L_front_hand 0.000000 0.000000 0.000000 0.000000 0.000000 0.000000 10.000000 
L_weapon_bone 0.000000 0.000000 0.000000 0.000000 0.000000 0.000000 10.000000 
L_front_hand01_01 0.000000 0.000000 0.000000 0.000000 0.000000 0.000000 10.000000 
L_front_hand02_01 0.000000 0.000000 0.000000 0.000000 0.000000 0.000000 10.000000 
L_front_hand03_01 0.000000 0.000000 0.000000 0.000000 0.000000 0.000000 10.000000 
L_front_hand01_02 0.000000 0.000000 0.000000 0.000000 0.000000 0.000000 10.000000 
L_front_hand02_02 0.000000 0.000000 0.000000 0.000000 0.000000 0.000000 10.000000 
L_front_hand03_02 0.000000 0.000000 0.000000 0.000000 0.000000 0.000000 10.000000 
R_forearm 0.000000 0.000000 0.000000 0.000000 0.000000 0.000000 10.000000 
R_front_hand 0.000000 0.000000 0.000000 0.000000 0.000000 0.000000 10.000000 
R_weapon_bone 0.000000 0.000000 0.000000 0.000000 0.000000 0.000000 10.000000 
R_front_hand01_01 0.000000 0.000000 0.000000 0.000000 0.000000 0.000000 10.000000 
R_front_hand02_01 0.000000 0.000000 0.000000 0.000000 0.000000 0.000000 10.000000 
R_front_hand03_01 0.000000 0.000000 0.000000 0.000000 0.000000 0.000000 10.000000 
R_front_hand01_02 0.000000 0.000000 0.000000 0.000000 0.000000 0.000000 10.000000 
R_front_hand02_02 0.000000 0.000000 0.000000 0.000000 0.000000 0.000000 10.000000 
R_front_hand03_02 0.000000 0.000000 0.000000 0.000000 0.000000 0.000000 10.000000 
null_rope01_connect 0.000000 0.000000 0.000000 0.000000 0.000000 0.000000 10.000000 
Rope1_Seg01 0.000000 0.000000 0.000000 0.000000 0.000000 0.000000 10.000000 
Rope1_Seg02 0.000000 0.000000 0.000000 0.000000 0.000000 0.000000 10.000000 
Rope1_Seg03 0.000000 0.000000 0.000000 0.000000 0.000000 0.000000 10.000000 
Rope1_Seg04 0.000000 0.000000 0.000000 0.000000 0.000000 0.000000 10.000000 
Rope1_Seg05 0.000000 0.000000 0.000000 0.000000 0.000000 0.000000 10.000000 
Rope1_Seg06 0.000000 0.000000 0.000000 0.000000 0.000000 0.000000 10.000000 
Rope1_Seg07 0.000000 0.000000 0.000000 0.000000 0.000000 0.000000 10.000000 
Rope1_Seg09 0.000000 0.000000 0.000000 0.000000 0.000000 0.000000 10.000000 
L_mid_hand01 0.000000 0.000000 0.000000 0.000000 0.000000 0.000000 10.000000 
L_mid_hand02 0.000000 0.000000 0.000000 0.000000 0.000000 0.000000 10.000000 
L_mid_hand03 0.000000 0.000000 0.000000 0.000000 0.000000 0.000000 10.000000 
null_rope02_connect 0.000000 0.000000 0.000000 0.000000 0.000000 0.000000 10.000000 
Rope2_Seg01 0.000000 0.000000 0.000000 0.000000 0.000000 0.000000 10.000000 
Rope2_Seg02 0.000000 0.000000 0.000000 0.000000 0.000000 0.000000 10.000000 
Rope2_Seg03 0.000000 0.000000 0.000000 0.000000 0.000000 0.000000 10.000000 
Rope2_Seg04 0.000000 0.000000 0.000000 0.000000 0.000000 0.000000 10.000000 
Rope2_Seg05 0.000000 0.000000 0.000000 0.000000 0.000000 0.000000 10.000000 
Rope2_Seg06 0.000000 0.000000 0.000000 0.000000 0.000000 0.000000 10.000000 
Rope2_Seg07 0.000000 0.000000 0.000000 0.000000 0.000000 0.000000 10.000000 
Rope2_Seg09 0.000000 0.000000 0.000000 0.000000 0.000000 0.000000 10.000000 
R_mid_hand01 0.000000 0.000000 0.000000 0.000000 0.000000 0.000000 10.000000 
R_mid_hand02 0.000000 0.000000 0.000000 0.000000 0.000000 0.000000 10.000000 
R_mid_hand03 0.000000 0.000000 0.000000 0.000000 0.000000 0.000000 10.000000 
spine02 0.000000 0.000000 0.000000 0.000000 0.000000 0.000000 10.000000 
spine03 0.000000 0.000000 0.000000 0.000000 0.000000 0.000000 10.000000 
pelvis 0.000000 0.000000 0.000000 0.000000 0.000000 0.000000 10.000000 
null_rope03_connect 0.000000 0.000000 0.000000 0.000000 0.000000 0.000000 10.000000 
null_rope04_connect 0.000000 0.000000 0.000000 0.000000 0.000000 0.000000 10.000000 
Rope3_Seg01 0.000000 0.000000 0.000000 0.000000 0.000000 0.000000 10.000000 
Rope3_Seg02 0.000000 0.000000 0.000000 0.000000 0.000000 0.000000 10.000000 
Rope3_Seg03 0.000000 0.000000 0.000000 0.000000 0.000000 0.000000 10.000000 
Rope3_Seg04 0.000000 0.000000 0.000000 0.000000 0.000000 0.000000 10.000000 
Rope3_Seg05 0.000000 0.000000 0.000000 0.000000 0.000000 0.000000 10.000000 
Rope3_Seg06 0.000000 0.000000 0.000000 0.000000 0.000000 0.000000 10.000000 
Rope3_Seg07 0.000000 0.000000 0.000000 0.000000 0.000000 0.000000 10.000000 
Rope3_Seg08 0.000000 0.000000 0.000000 0.000000 0.000000 0.000000 10.000000 
Rope3_Seg09 0.000000 0.000000 0.000000 0.000000 0.000000 0.000000 10.000000 
R_rear_hand01 0.000000 0.000000 0.000000 0.000000 0.000000 0.000000 10.000000 
R_rear_hand02 0.000000 0.000000 0.000000 0.000000 0.000000 0.000000 10.000000 
R_rear_hand03 0.000000 0.000000 0.000000 0.000000 0.000000 0.000000 10.000000 
Rope4_Seg01 0.000000 0.000000 0.000000 0.000000 0.000000 0.000000 10.000000 
Rope4_Seg02 0.000000 0.000000 0.000000 0.000000 0.000000 0.000000 10.000000 
Rope4_Seg03 0.000000 0.000000 0.000000 0.000000 0.000000 0.000000 10.000000 
Rope4_Seg04 0.000000 0.000000 0.000000 0.000000 0.000000 0.000000 10.000000 
Rope4_Seg05 0.000000 0.000000 0.000000 0.000000 0.000000 0.000000 10.000000 
Rope4_Seg06 0.000000 0.000000 0.000000 0.000000 0.000000 0.000000 10.000000 
Rope4_Seg07 0.000000 0.000000 0.000000 0.000000 0.000000 0.000000 10.000000 
Rope4_Seg08 0.000000 0.000000 0.000000 0.000000 0.000000 0.000000 10.000000 
Rope4_Seg09 0.000000 0.000000 0.000000 0.000000 0.000000 0.000000 10.000000 
L_rear_hand01 0.000000 0.000000 0.000000 0.000000 0.000000 0.000000 10.000000 
L_rear_hand02 0.000000 0.000000 0.000000 0.000000 0.000000 0.000000 10.000000 
L_rear_hand03 0.000000 0.000000 0.000000 0.000000 0.000000 0.000000 10.000000 
#Beginning of Data. Separated by tabs
#Fr	Tx	Ty	Tz	Rx	Ry	Rz	SF
[MASTER]
35 0.000000 0.000000 0.000000 0.001660 0.001660 0.001660 0.000000
36 0.000000 0.000000 0.000000 0.001660 0.001660 0.001660 0.000000
[root]
35 46.893513 -52.530273 1551.799072 -107.664474 13.674682 -87.216331 1553.395874
36 41.040878 -52.303333 1560.590454 -107.588127 13.565648 -87.174255 1562.005981
[chest]
35 -86.836601 -33.005978 -30.127237 4.452408 -8.649561 172.434723 97.660843
36 -86.836601 -33.005978 -30.127237 3.788107 -8.722957 172.662735 97.660843
[L_mid_tent01]
35 27.299494 22.177580 -249.918289 -5.739864 20.188484 76.119972 252.381180
36 27.299492 22.177580 -249.918289 -5.574595 19.912849 76.497986 252.381180
[R_mid_tent01]
35 23.228794 24.509907 226.238495 -176.007385 -18.114716 65.469475 228.744751
36 23.228794 24.509907 226.238495 -176.011032 -17.915876 65.486588 228.744751
[spine01]
35 -0.361383 -0.195265 0.000000 -0.000001 -0.000007 22.052340 0.410763
36 -0.361383 -0.195265 0.000000 -0.000001 -0.000007 22.052340 0.410763
[Bip01_Neck]
35 165.484543 71.581718 0.000119 175.896118 1.177290 24.871183 180.302734
36 165.484543 71.581718 0.000119 175.896118 1.177290 24.871183 180.302734
[L_humerus]
35 -13.983130 -135.272980 -120.471481 -168.517593 36.033752 -113.483025 181.680161
36 -13.983130 -135.272980 -120.471481 -168.517593 36.033752 -113.483025 181.680161
[R_humerus]
35 -13.983309 -135.273102 125.287651 -179.588654 -28.895136 -122.030510 184.909012
36 -13.983309 -135.273102 125.287651 -179.588654 -28.895126 -122.030510 184.909012
[weapon_bone]
35 235.964890 -300.705902 0.000000 0.000000 -89.951546 -128.212341 382.234833
36 235.964890 -300.705902 0.000000 0.000000 -89.951546 -128.212341 382.234833
[Bip01_Head]
35 189.519867 179.130280 22.124905 -37.273659 5.815943 14.735315 261.715393
36 189.519867 179.130280 22.124907 -23.626308 5.787232 14.654977 261.715393
[eye_left_bone]
35 -24.626970 125.451866 -64.772606 0.000000 -90.000000 -99.840431 143.318359
36 -24.626970 125.451866 -64.772606 0.000000 -90.000000 -99.840431 143.318359
[eye_right_bone]
35 -24.626970 125.451866 64.327362 0.000000 -89.965736 80.156380 143.117676
36 -24.626970 125.451866 64.327362 0.000000 -89.965736 80.156380 143.117676
[L_forearm]
35 322.776093 0.000000 -0.000119 0.000017 0.002347 -89.149834 322.776093
36 322.776093 0.000000 -0.000119 0.000017 0.002347 -89.149834 322.776093
[L_front_hand]
35 241.149185 -0.042021 -3.300071 54.102509 -2.242043 -0.021222 241.171753
36 241.149185 -0.042021 -3.300071 52.685116 -2.244461 -0.022241 241.171753
[L_weapon_bone]
35 156.183838 0.000000 0.000000 0.000014 0.000007 0.000001 156.183838
36 156.183838 0.000000 0.000000 0.000014 0.000007 0.000001 156.183838
[L_front_hand01_01]
35 86.095154 20.947098 -0.655860 -0.366594 -0.477154 75.385574 88.609184
36 86.095154 20.947098 -0.655860 -0.366594 -0.477154 75.385574 88.609184
[L_front_hand02_01]
35 86.935165 -11.437475 24.513514 154.399796 -59.883835 -61.369587 91.046425
36 86.935165 -11.437475 24.513514 154.399796 -59.883835 -61.369587 91.046425
[L_front_hand03_01]
35 86.637497 -14.123976 -20.424902 -153.913849 58.118122 -62.702866 90.126129
36 86.637497 -14.123976 -20.424902 -153.913849 58.118122 -62.702866 90.126129
[L_front_hand01_02]
35 71.020905 -0.000179 0.000030 0.000334 -0.002323 -106.379684 71.020905
36 71.020905 -0.000179 0.000030 0.000334 -0.002323 -106.379684 71.020905
[L_front_hand02_02]
35 71.020927 -0.000119 0.000060 0.000334 -0.002323 -106.379684 71.020927
36 71.020927 -0.000119 0.000060 0.000334 -0.002323 -106.379684 71.020927
[L_front_hand03_02]
35 71.020905 -0.000060 0.000060 0.000334 -0.002323 -106.379684 71.020905
36 71.020905 -0.000060 0.000060 0.000334 -0.002323 -106.379684 71.020905
[R_forearm]
35 322.776428 -0.000060 0.000030 0.213197 0.007525 -93.425262 322.776428
36 322.776428 -0.000060 0.000030 0.213197 0.007525 -93.425262 322.776428
[R_front_hand]
35 238.847015 -0.006795 2.210259 -0.270529 1.703932 2.322530 238.857239
36 238.847015 -0.006795 2.210259 -0.270529 1.703932 2.322530 238.857239
[R_weapon_bone]
35 155.664093 0.002503 -0.000030 0.003487 0.001180 -90.988930 155.664078
36 155.664093 0.002503 -0.000030 0.003487 0.001180 -90.988930 155.664078
[R_front_hand01_01]
35 87.624611 14.231146 22.918642 -154.633499 -59.950619 61.746044 91.683487
36 87.624611 14.231146 22.918642 -154.633499 -59.950619 61.746044 91.683487
[R_front_hand02_01]
35 89.356956 14.367283 -19.491137 154.602661 58.302849 63.744389 92.579636
36 89.356956 14.367283 -19.491137 154.602661 58.302849 63.744389 92.579636
[R_front_hand03_01]
35 87.286232 -22.307278 -0.143439 0.162155 -0.423168 -75.767921 90.091743
36 87.286232 -22.307278 -0.143439 0.162155 -0.423168 -75.767921 90.091743
[R_front_hand01_02]
35 71.020905 0.000060 0.000119 0.002323 -0.000334 106.381714 71.020905
36 71.020905 0.000060 0.000119 0.002323 -0.000334 106.381714 71.020905
[R_front_hand02_02]
35 71.020844 -0.000030 -0.000119 0.002323 -0.000334 106.381714 71.020836
36 71.020844 -0.000030 -0.000119 0.002323 -0.000334 106.381714 71.020836
[R_front_hand03_02]
35 71.020905 0.000000 0.000030 0.002323 -0.000334 106.381714 71.020905
36 71.020905 0.000000 0.000030 0.002323 -0.000334 106.381714 71.020905
[null_rope01_connect]
35 328.732483 0.000000 -0.000238 161.681168 -50.593925 -161.683670 328.732483
36 328.732483 0.000000 -0.000238 161.641571 -50.959877 -161.877823 328.732483
[Rope1_Seg01]
35 0.000000 0.000000 0.000000 -45.813915 76.816757 -40.355232 0.000000
36 0.000000 0.000000 0.000000 -51.822243 75.969337 -46.877235 0.000000
[Rope1_Seg02]
35 139.999863 -0.000179 0.000000 0.411559 2.327000 -3.943207 139.999863
36 139.999863 -0.000179 0.000000 0.467778 1.911146 -3.503036 139.999863
[Rope1_Seg03]
35 139.999924 0.000060 -0.000060 0.767431 3.308804 -5.727993 139.999924
36 139.999924 0.000060 -0.000060 0.834108 2.687187 -5.041377 139.999924
[Rope1_Seg04]
35 139.999924 -0.000060 -0.000119 4.311866 6.781328 -14.533376 139.999924
36 139.999924 -0.000060 -0.000119 4.724647 4.779527 -12.863778 139.999924
[Rope1_Seg05]
35 139.999832 0.000119 -0.000060 1.174640 4.737968 -6.636259 139.999832
36 139.999832 0.000119 -0.000060 -0.349252 5.056711 -5.585296 139.999832
[Rope1_Seg06]
35 139.999954 0.000119 -0.000060 -7.935205 -0.674128 9.384083 139.999954
36 139.999954 0.000119 -0.000060 -8.216241 1.355950 7.909268 139.999954
[Rope1_Seg07]
35 139.999985 0.000060 0.000000 -1.678442 0.103766 1.904517 139.999985
36 139.999985 0.000060 0.000000 -2.030512 0.767222 1.605642 139.999985
[Rope1_Seg09]
35 121.602913 0.000119 -0.000089 -89.793175 -1.359789 0.847147 121.602913
36 121.602913 0.000119 -0.000089 -89.793175 -1.359789 0.847147 121.602913
[L_mid_hand01]
35 103.859421 1.038730 8.195221 106.855484 -31.239275 -9.461397 104.187431
36 103.859421 1.038730 8.195221 106.855484 -31.239275 -9.461397 104.187431
[L_mid_hand02]
35 105.572853 -4.139662 -10.864139 -142.331345 25.752670 -28.774628 106.211075
36 105.572853 -4.139662 -10.864139 -142.331345 25.752670 -28.774628 106.211075
[L_mid_hand03]
35 104.641464 17.579376 -3.913581 -16.122810 9.734291 34.223598 106.179977
36 104.641464 17.579376 -3.913581 -16.122810 9.734291 34.223598 106.179977
[null_rope02_connect]
35 328.732849 0.000179 -0.000119 -102.302460 83.538406 68.094521 328.732849
36 328.732849 0.000179 -0.000119 -101.234077 83.575996 69.047112 328.732849
[Rope2_Seg01]
35 0.000076 0.000111 0.000153 141.176376 83.220825 -103.397217 0.000204
36 0.000076 0.000111 0.000153 143.690262 83.292793 -100.946983 0.000204
[Rope2_Seg02]
35 139.999741 -0.000060 -0.000119 -3.401907 8.340957 5.063699 139.999756
36 139.999741 -0.000060 -0.000119 -3.412007 8.231934 5.055937 139.999756
[Rope2_Seg03]
35 140.000107 0.000030 0.000000 -6.478709 11.070766 8.215624 140.000107
36 140.000107 0.000030 0.000000 -6.443256 10.906013 8.177143 140.000107
[Rope2_Seg04]
35 139.999802 0.000000 -0.000060 -8.759376 10.329659 9.636539 139.999802
36 139.999802 0.000000 -0.000060 -8.734595 10.248549 9.649203 139.999802
[Rope2_Seg05]
35 139.999985 -0.000060 0.000119 3.769690 -1.226765 -4.657048 139.999985
36 139.999985 -0.000060 0.000119 3.708703 -1.206399 -4.596214 139.999985
[Rope2_Seg06]
35 139.999893 -0.000030 -0.000119 2.494640 -1.121715 -2.951766 139.999893
36 139.999893 -0.000030 -0.000119 2.484879 -1.126913 -2.951779 139.999893
[Rope2_Seg07]
35 139.999893 0.000060 -0.000060 0.759781 -0.154708 -1.033050 139.999893
36 139.999893 0.000060 -0.000060 0.749921 -0.159806 -1.023179 139.999893
[Rope2_Seg09]
35 121.338966 0.000089 -0.000060 33.793236 -1.359788 -0.847141 121.338966
36 121.338966 0.000089 -0.000060 33.793236 -1.359788 -0.847141 121.338966
[R_mid_hand01]
35 104.680779 11.144459 -10.335981 -41.523792 25.424656 28.595957 105.778534
36 104.680779 11.144459 -10.335981 -41.523792 25.424656 28.595957 105.778534
[R_mid_hand02]
35 104.070427 2.443552 8.231699 72.847389 -32.746803 10.013901 104.424065
36 104.070427 2.443552 8.231699 72.847389 -32.746803 10.013901 104.424065
[R_mid_hand03]
35 106.028137 -11.221827 -5.996406 -167.901306 10.259192 -37.009720 106.788818
36 106.028137 -11.221827 -5.996406 -167.901306 10.259192 -37.009720 106.788818
[spine02]
35 129.756927 0.001550 0.000119 -0.245322 -4.052060 -4.355547 129.756927
36 129.756927 0.001550 0.000119 -0.245322 -4.052060 -4.355547 129.756927
[spine03]
35 78.613846 0.087372 -4.898873 0.207412 -2.089717 -0.432471 78.766380
36 78.613846 0.087372 -4.898873 0.207412 -2.089717 -0.432471 78.766380
[pelvis]
35 169.435242 0.051022 0.000000 -0.010007 -0.191417 -1.897554 169.435257
36 169.435242 0.051022 0.000000 -0.010007 -0.191417 -1.897554 169.435257
[null_rope03_connect]
35 -1.257226 -2.466202 137.391083 138.210251 -71.374901 -77.851463 137.418976
36 -1.257226 -2.466202 137.391083 138.128326 -71.419273 -77.658958 137.418976
[null_rope04_connect]
35 -1.259640 -2.480268 -137.844437 138.210251 -71.374901 -77.851463 137.872513
36 -1.259640 -2.480268 -137.844437 138.128326 -71.419273 -77.658958 137.872513
[Rope3_Seg01]
35 0.000000 0.000000 0.000000 -153.801331 67.008934 -92.308105 0.000000
36 0.000000 0.000000 0.000000 -153.889160 67.495010 -92.213348 0.000000
[Rope3_Seg02]
35 139.999924 -0.000119 0.000060 3.226184 7.791936 -5.861274 139.999924
36 139.999924 -0.000119 0.000060 3.194095 7.767343 -5.764695 139.999924
[Rope3_Seg03]
35 139.999924 -0.000119 0.000119 5.529347 16.276180 -9.157897 139.999924
36 139.999924 -0.000119 0.000119 5.467584 16.088238 -9.123139 139.999924
[Rope3_Seg04]
35 139.999924 0.000119 0.000000 1.540246 1.952328 -6.525296 139.999924
36 139.999924 0.000119 0.000000 1.842427 3.091315 -6.905006 139.999924
[Rope3_Seg05]
35 139.999924 -0.000238 0.000060 -6.555916 -27.610346 7.441730 139.999924
36 139.999924 -0.000238 0.000060 -6.847559 -27.614439 7.831471 139.999924
[Rope3_Seg06]
35 139.999893 -0.000119 -0.000060 -0.111349 -10.576768 1.328211 139.999893
36 139.999893 -0.000119 -0.000060 -0.222130 -10.893302 1.513331 139.999893
[Rope3_Seg07]
35 139.999771 0.000060 -0.000119 0.590220 -5.458371 0.533030 139.999771
36 139.999771 0.000060 -0.000119 0.552512 -5.537691 0.588929 139.999771
[Rope3_Seg08]
35 139.999985 -0.000060 0.000000 0.685277 -3.096786 0.334418 139.999985
36 139.999985 -0.000060 0.000000 0.664691 -3.136450 0.359483 139.999985
[Rope3_Seg09]
35 90.185997 -0.000179 -0.000060 89.793228 -1.359877 -0.847183 90.185997
36 90.185997 -0.000179 -0.000060 89.793228 -1.359877 -0.847183 90.185997
[R_rear_hand01]
35 103.366196 -6.073594 -10.757982 -161.551193 16.666374 -30.088671 104.101845
36 103.366196 -6.073594 -10.757982 -161.551193 16.666374 -30.088671 104.101845
[R_rear_hand02]
35 100.509819 12.039542 -7.992327 -34.280552 19.289745 28.875523 101.543350
36 100.509819 12.039542 -7.992327 -34.280552 19.289745 28.875523 101.543350
[R_rear_hand03]
35 101.539970 5.215704 5.435467 83.366440 -30.933914 7.284830 101.819031
36 101.539970 5.215704 5.435467 83.366440 -30.933914 7.284830 101.819031
[Rope4_Seg01]
35 0.000010 0.000038 -0.000114 30.986492 65.043488 -130.286133 0.000121
36 0.000010 0.000038 -0.000114 30.803787 64.253517 -130.446762 0.000121
[Rope4_Seg02]
35 139.999985 0.000060 0.000119 -0.127860 3.270009 5.001728 139.999985
36 139.999985 0.000060 0.000119 -0.056266 3.791547 4.830865 139.999985
[Rope4_Seg03]
35 139.999924 0.000000 -0.000238 -0.548515 3.597731 6.142939 139.999924
36 139.999924 0.000000 -0.000238 -0.448823 4.181146 5.981279 139.999924
[Rope4_Seg04]
35 139.999985 0.000000 0.000119 -0.745038 3.188214 5.019313 139.999985
36 139.999985 0.000000 0.000119 -0.609243 3.670648 4.733860 139.999985
[Rope4_Seg05]
35 139.999802 -0.000060 -0.000119 0.831252 0.629995 -2.061269 139.999802
36 139.999802 -0.000060 -0.000119 0.928301 0.668114 -2.273151 139.999802
[Rope4_Seg06]
35 139.999924 0.000000 0.000060 0.604950 0.424374 -1.371065 139.999924
36 139.999924 0.000000 0.000060 0.653593 0.465003 -1.454740 139.999924
[Rope4_Seg07]
35 139.999802 0.000000 0.000000 0.385085 0.488197 -0.550625 139.999802
36 139.999802 0.000000 0.000000 0.428991 0.538164 -0.629390 139.999802
[Rope4_Seg08]
35 139.999924 0.000000 0.000119 -1.280366 0.323931 -0.372912 139.999924
36 139.999924 0.000000 0.000119 -1.255873 0.355695 -0.415230 139.999924
[Rope4_Seg09]
35 90.185791 0.000060 0.000060 -135.617828 2.228885 0.850567 90.185791
36 90.185791 0.000060 0.000060 -135.617828 2.228885 0.850567 90.185791
[L_rear_hand01]
35 101.696655 -8.392275 -7.654577 -34.454281 -18.946800 151.655121 102.329041
36 101.696655 -8.392275 -7.654577 -34.454281 -18.946800 151.655121 102.329041
[L_rear_hand02]
35 102.726799 -1.568258 5.773216 83.407906 30.330435 172.796509 102.900848
36 102.726799 -1.568258 5.773216 83.407906 30.330435 172.796509 102.900848
[L_rear_hand03]
35 104.552910 9.721220 -10.420293 -161.379868 -16.473232 -150.512238 105.519653
36 104.552910 9.721220 -10.420293 -161.379868 -16.473232 -150.512238 105.519653
